<svg id="svg" version="1.1" xmlns="http://www.w3.org/2000/svg" xmlns:xlink="http://www.w3.org/1999/xlink" width="400" height="400" viewBox="0, 0, 400,400"><g id="svgg"><path id="path0" d="M183.600 26.814 C 183.600 27.262,183.879 28.054,184.221 28.575 L 184.841 29.523 180.921 30.770 C 176.836 32.070,167.649 36.377,166.815 37.382 C 166.225 38.093,166.641 39.600,167.427 39.600 C 168.381 39.600,168.097 40.330,165.800 43.783 C 161.642 50.032,160.456 53.533,162.226 54.339 C 162.935 54.662,163.184 55.022,163.032 55.503 C 160.849 62.417,162.157 80.619,164.905 81.577 C 168.557 82.850,170.766 80.428,172.000 73.800 C 173.766 64.315,174.015 63.320,175.195 61.029 C 176.631 58.245,181.516 56.246,182.600 58.000 C 182.736 58.220,183.366 58.400,184.000 58.400 C 184.634 58.400,185.264 58.580,185.400 58.800 C 185.536 59.020,186.166 59.200,186.800 59.200 C 187.434 59.200,188.064 59.380,188.200 59.600 C 188.336 59.820,189.056 60.000,189.800 60.000 C 190.544 60.000,191.248 60.154,191.364 60.341 C 191.692 60.872,202.669 61.214,205.800 60.792 C 211.264 60.054,212.007 59.911,212.226 59.558 C 212.348 59.361,212.889 59.200,213.429 59.200 C 213.969 59.200,214.723 59.042,215.105 58.849 C 220.451 56.148,224.925 58.337,226.128 64.243 C 226.258 64.879,226.561 66.300,226.801 67.400 C 227.041 68.500,227.404 70.390,227.608 71.600 C 228.258 75.455,228.644 76.963,229.368 78.483 C 230.163 80.150,231.860 82.000,232.595 82.000 C 233.445 82.000,235.789 81.085,236.094 80.634 C 236.656 79.804,236.400 67.933,235.757 65.000 C 235.419 63.460,234.999 59.230,234.824 55.600 C 234.396 46.733,232.913 41.322,230.081 38.300 C 228.830 36.965,228.178 36.913,227.560 38.100 C 226.876 39.414,226.877 39.414,225.991 38.364 C 220.313 31.636,211.963 27.140,211.198 30.400 C 210.908 31.640,210.685 31.636,208.200 30.348 C 205.963 29.190,202.114 27.935,198.800 27.284 C 197.590 27.047,195.641 26.660,194.469 26.426 C 190.418 25.616,183.600 25.859,183.600 26.814 M165.600 146.009 C 164.830 146.183,163.210 146.521,162.000 146.760 C 159.867 147.182,157.285 147.739,154.400 148.399 C 153.630 148.575,152.100 148.905,151.000 149.131 C 149.900 149.357,148.505 149.731,147.900 149.961 L 146.800 150.380 146.800 173.594 C 146.800 196.423,146.786 196.839,145.951 198.615 C 144.831 200.997,142.533 202.912,140.023 203.555 C 138.910 203.841,138.004 204.192,138.010 204.337 C 138.020 204.632,138.594 206.879,139.200 209.000 C 139.420 209.770,139.762 210.985,139.961 211.700 C 140.299 212.917,143.429 223.660,145.206 229.700 C 145.643 231.185,146.343 233.615,146.763 235.100 C 147.183 236.585,147.759 238.520,148.045 239.400 C 148.452 240.656,148.593 249.634,148.700 281.100 L 148.836 321.200 199.918 321.200 L 251.000 321.200 250.873 284.100 C 250.750 247.869,250.873 242.976,252.010 238.800 C 252.607 236.609,254.154 231.244,258.228 217.233 C 260.302 210.100,261.954 204.230,261.899 204.186 C 261.845 204.143,260.839 203.794,259.663 203.410 C 253.164 201.286,253.200 201.450,253.200 173.594 L 253.200 150.380 252.100 149.961 C 251.495 149.730,250.280 149.392,249.400 149.210 C 248.520 149.028,246.090 148.498,244.000 148.033 C 238.466 146.801,232.428 145.600,231.771 145.600 C 231.290 145.600,231.200 147.408,231.200 157.100 C 231.200 165.471,231.042 169.422,230.621 171.623 C 224.016 206.143,175.984 206.143,169.379 171.623 C 168.958 169.422,168.800 165.471,168.800 157.100 L 168.800 145.600 167.900 145.646 C 167.405 145.671,166.370 145.835,165.600 146.009 M133.900 321.882 C 134.395 321.978,135.205 321.978,135.700 321.882 C 136.195 321.787,135.790 321.709,134.800 321.709 C 133.810 321.709,133.405 321.787,133.900 321.882 M264.300 321.882 C 264.795 321.978,265.605 321.978,266.100 321.882 C 266.595 321.787,266.190 321.709,265.200 321.709 C 264.210 321.709,263.805 321.787,264.300 321.882 " stroke="none" fill="#3c4a69" fill-rule="evenodd"></path><path id="path1" d="M177.772 58.496 C 175.633 59.612,173.147 66.543,172.715 72.600 L 172.601 74.200 176.137 74.316 C 179.304 74.420,179.641 74.504,179.365 75.116 C 178.818 76.333,178.674 89.606,179.172 93.000 C 179.920 98.096,180.868 102.098,182.486 107.000 C 186.734 119.864,195.192 131.037,203.600 134.892 C 208.453 137.118,219.261 127.828,224.949 116.543 C 226.170 114.119,226.723 112.903,228.015 109.800 C 228.939 107.578,230.117 103.696,230.423 101.861 C 230.613 100.728,230.955 98.900,231.184 97.800 C 231.413 96.700,231.890 93.050,232.244 89.689 L 232.888 83.579 231.097 81.889 C 228.834 79.754,227.200 76.100,227.200 73.172 C 227.200 69.768,225.320 62.492,223.891 60.365 C 222.183 57.823,220.649 57.652,214.595 59.330 C 206.890 61.467,204.646 61.754,198.002 61.456 C 192.363 61.204,190.925 60.931,183.600 58.727 C 181.555 58.112,178.723 58.000,177.772 58.496 M220.296 334.546 C 216.106 336.112,211.491 342.527,208.405 351.074 C 207.328 354.056,207.631 353.935,202.200 353.559 C 173.420 351.563,121.466 349.937,114.000 350.799 C 111.910 351.040,108.490 351.403,106.400 351.606 C 52.930 356.801,37.070 388.764,83.400 397.958 C 87.909 398.852,88.597 399.048,88.533 399.415 C 88.445 399.917,98.866 399.689,99.380 399.178 C 99.589 398.970,101.074 398.800,102.680 398.800 C 104.360 398.800,105.600 398.630,105.600 398.400 C 105.600 398.175,106.725 398.000,108.176 398.000 C 109.593 398.000,110.864 397.820,111.000 397.600 C 111.136 397.380,112.507 397.200,114.047 397.200 C 115.812 397.200,116.756 397.052,116.600 396.800 C 116.447 396.552,117.196 396.400,118.576 396.400 C 119.799 396.400,120.800 396.251,120.800 396.068 C 120.800 395.886,121.835 395.696,123.100 395.645 C 124.365 395.595,125.571 395.384,125.780 395.177 C 125.989 394.970,127.103 394.800,128.256 394.800 C 129.409 394.800,130.464 394.620,130.600 394.400 C 130.736 394.180,131.737 394.000,132.824 394.000 C 133.911 394.000,134.800 393.820,134.800 393.600 C 134.800 393.380,135.689 393.200,136.776 393.200 C 137.863 393.200,138.864 393.020,139.000 392.800 C 139.136 392.580,139.867 392.400,140.624 392.400 C 141.381 392.400,142.000 392.248,142.000 392.063 C 142.000 391.595,145.754 390.585,151.200 389.588 C 155.707 388.762,161.584 387.640,174.000 385.236 C 177.410 384.575,182.000 383.643,184.200 383.164 C 186.400 382.685,188.920 382.154,189.800 381.984 C 193.141 381.337,196.261 380.713,197.900 380.363 C 198.835 380.163,200.365 379.837,201.300 379.637 C 202.235 379.437,203.990 379.078,205.200 378.838 C 206.410 378.598,208.210 378.212,209.200 377.979 C 210.190 377.747,211.720 377.406,212.600 377.222 C 214.108 376.907,216.828 376.314,220.000 375.608 C 220.770 375.437,222.840 374.990,224.600 374.616 C 231.064 373.241,257.307 367.199,262.100 365.981 C 262.925 365.771,264.320 365.420,265.200 365.200 C 266.080 364.980,267.520 364.620,268.400 364.400 C 269.280 364.180,270.720 363.820,271.600 363.600 C 274.200 362.950,276.531 362.328,277.600 362.000 C 278.150 361.831,279.320 361.505,280.200 361.275 C 290.759 358.516,298.624 355.724,299.064 354.578 C 299.698 352.926,295.399 348.217,290.765 345.490 C 283.154 341.009,271.672 339.959,261.200 342.785 C 252.829 345.044,252.219 345.171,249.715 345.186 C 246.347 345.205,244.049 344.272,237.435 340.200 C 227.951 334.361,224.149 333.106,220.296 334.546 M28.800 390.420 C 30.187 391.361,30.978 391.635,30.000 390.836 C 29.450 390.386,28.820 390.017,28.600 390.015 C 28.380 390.013,28.470 390.196,28.800 390.420 M52.649 399.280 C 52.758 399.456,53.096 399.600,53.400 399.600 C 53.704 399.600,54.042 399.456,54.151 399.280 C 54.259 399.104,53.922 398.960,53.400 398.960 C 52.878 398.960,52.541 399.104,52.649 399.280 " stroke="none" fill="#facec6" fill-rule="evenodd"></path><path id="path2" d="M178.300 0.275 C 176.375 0.361,174.800 0.604,174.800 0.816 C 174.800 1.027,173.461 1.200,171.824 1.200 C 170.187 1.200,168.736 1.380,168.600 1.600 C 168.464 1.820,167.463 2.000,166.376 2.000 C 165.289 2.000,164.400 2.180,164.400 2.400 C 164.400 2.620,163.410 2.800,162.200 2.800 C 160.990 2.800,160.000 2.980,160.000 3.200 C 160.000 3.420,159.201 3.600,158.224 3.600 C 157.247 3.600,156.336 3.780,156.200 4.000 C 156.064 4.220,155.243 4.400,154.376 4.400 C 153.509 4.400,152.800 4.580,152.800 4.800 C 152.800 5.020,152.080 5.200,151.200 5.200 C 150.320 5.200,149.600 5.380,149.600 5.600 C 149.600 5.820,148.880 6.000,148.000 6.000 C 147.120 6.000,146.400 6.180,146.400 6.400 C 146.400 6.620,145.860 6.800,145.200 6.800 C 144.540 6.800,144.000 6.980,144.000 7.200 C 144.000 7.420,143.370 7.600,142.600 7.600 C 141.830 7.600,141.200 7.780,141.200 8.000 C 141.200 8.220,140.771 8.400,140.246 8.400 C 139.355 8.400,136.018 9.285,134.200 10.003 C 133.760 10.177,132.770 10.536,132.000 10.800 C 130.307 11.382,128.840 11.971,127.905 12.447 C 127.523 12.641,126.848 12.800,126.405 12.800 C 125.962 12.800,125.600 12.980,125.600 13.200 C 125.600 13.420,125.240 13.600,124.800 13.600 C 124.360 13.600,124.000 13.780,124.000 14.000 C 124.000 14.220,123.561 14.400,123.024 14.400 C 122.487 14.400,121.936 14.580,121.800 14.800 C 121.664 15.020,121.203 15.200,120.776 15.200 C 120.349 15.200,120.000 15.380,120.000 15.600 C 120.000 15.820,119.640 16.000,119.200 16.000 C 118.760 16.000,118.400 16.180,118.400 16.400 C 118.400 16.620,118.128 16.800,117.795 16.800 C 117.207 16.800,116.782 16.967,114.905 17.938 C 114.413 18.192,113.738 18.400,113.405 18.400 C 113.072 18.400,112.800 18.580,112.800 18.800 C 112.800 19.020,112.440 19.200,112.000 19.200 C 111.560 19.200,111.200 19.346,111.200 19.525 C 111.200 19.704,110.570 20.098,109.800 20.400 C 109.030 20.702,108.400 21.096,108.400 21.275 C 108.400 21.454,108.040 21.600,107.600 21.600 C 107.160 21.600,106.800 21.780,106.800 22.000 C 106.800 22.220,106.440 22.400,106.000 22.400 C 105.560 22.400,105.200 22.580,105.200 22.800 C 105.200 23.020,104.880 23.200,104.488 23.200 C 104.097 23.200,103.517 23.560,103.200 24.000 C 102.883 24.440,102.387 24.800,102.098 24.800 C 101.396 24.800,97.435 26.809,97.267 27.251 C 97.193 27.443,96.956 27.600,96.739 27.600 C 96.522 27.600,95.559 28.140,94.600 28.800 C 93.641 29.460,92.703 30.000,92.516 30.000 C 92.329 30.000,91.917 30.360,91.600 30.800 C 91.283 31.240,90.743 31.600,90.400 31.600 C 90.057 31.600,89.517 31.960,89.200 32.400 C 88.883 32.840,88.343 33.200,88.000 33.200 C 87.657 33.200,87.117 33.560,86.800 34.000 C 86.483 34.440,85.991 34.800,85.708 34.800 C 85.425 34.800,84.628 35.340,83.937 36.000 C 83.246 36.660,82.478 37.200,82.229 37.200 C 81.980 37.200,81.517 37.560,81.200 38.000 C 80.883 38.440,80.375 38.800,80.072 38.800 C 79.769 38.800,79.017 39.340,78.400 40.000 C 77.783 40.660,77.164 41.200,77.023 41.200 C 76.752 41.200,76.352 41.514,74.349 43.300 C 73.671 43.905,72.959 44.400,72.768 44.400 C 72.577 44.400,71.651 45.167,70.711 46.105 C 69.770 47.043,68.370 48.255,67.600 48.799 C 66.830 49.342,64.439 51.590,62.287 53.793 C 57.582 58.611,58.611 57.582,53.793 62.287 C 51.590 64.439,49.342 66.828,48.799 67.595 C 48.255 68.362,46.953 69.865,45.905 70.935 C 44.857 72.005,44.000 73.051,44.000 73.259 C 44.000 73.466,43.595 74.070,43.100 74.599 C 41.731 76.063,41.200 76.740,41.200 77.023 C 41.200 77.164,40.660 77.783,40.000 78.400 C 39.340 79.017,38.800 79.769,38.800 80.072 C 38.800 80.375,38.440 80.883,38.000 81.200 C 37.560 81.517,37.200 82.007,37.200 82.288 C 37.200 82.570,37.020 82.800,36.800 82.800 C 36.580 82.800,36.400 83.030,36.400 83.312 C 36.400 83.593,36.040 84.083,35.600 84.400 C 35.160 84.717,34.800 85.257,34.800 85.600 C 34.800 85.943,34.440 86.483,34.000 86.800 C 33.560 87.117,33.200 87.657,33.200 88.000 C 33.200 88.343,32.840 88.883,32.400 89.200 C 31.960 89.517,31.600 90.057,31.600 90.400 C 31.600 90.743,31.240 91.283,30.800 91.600 C 30.360 91.917,30.000 92.329,30.000 92.516 C 30.000 92.703,29.460 93.641,28.800 94.600 C 28.140 95.559,27.600 96.522,27.600 96.739 C 27.600 96.956,27.443 97.193,27.251 97.267 C 26.809 97.435,24.800 101.396,24.800 102.098 C 24.800 102.387,24.440 102.883,24.000 103.200 C 23.560 103.517,23.200 104.097,23.200 104.488 C 23.200 104.880,23.020 105.200,22.800 105.200 C 22.580 105.200,22.400 105.560,22.400 106.000 C 22.400 106.440,22.220 106.800,22.000 106.800 C 21.780 106.800,21.600 107.160,21.600 107.600 C 21.600 108.040,21.454 108.400,21.275 108.400 C 21.096 108.400,20.702 109.030,20.400 109.800 C 20.098 110.570,19.704 111.200,19.525 111.200 C 19.346 111.200,19.200 111.560,19.200 112.000 C 19.200 112.440,19.020 112.800,18.800 112.800 C 18.580 112.800,18.400 113.065,18.400 113.388 C 18.400 113.711,18.040 114.617,17.600 115.400 C 17.160 116.183,16.800 117.179,16.800 117.612 C 16.800 118.045,16.620 118.400,16.400 118.400 C 16.180 118.400,16.000 118.760,16.000 119.200 C 16.000 119.640,15.820 120.000,15.600 120.000 C 15.380 120.000,15.200 120.360,15.200 120.800 C 15.200 121.240,15.020 121.600,14.800 121.600 C 14.580 121.600,14.400 122.140,14.400 122.800 C 14.400 123.460,14.220 124.000,14.000 124.000 C 13.780 124.000,13.600 124.360,13.600 124.800 C 13.600 125.240,13.420 125.600,13.200 125.600 C 12.980 125.600,12.800 125.962,12.800 126.405 C 12.800 126.848,12.641 127.523,12.447 127.905 C 12.252 128.287,11.871 129.140,11.600 129.800 C 11.329 130.460,10.948 131.313,10.753 131.695 C 10.559 132.077,10.400 132.664,10.400 133.000 C 10.400 133.336,10.237 133.923,10.037 134.305 C 9.440 135.447,8.400 139.222,8.400 140.246 C 8.400 140.771,8.220 141.200,8.000 141.200 C 7.780 141.200,7.600 141.830,7.600 142.600 C 7.600 143.370,7.420 144.000,7.200 144.000 C 6.980 144.000,6.800 144.540,6.800 145.200 C 6.800 145.860,6.620 146.400,6.400 146.400 C 6.180 146.400,6.000 147.120,6.000 148.000 C 6.000 148.880,5.820 149.600,5.600 149.600 C 5.380 149.600,5.200 150.320,5.200 151.200 C 5.200 152.080,5.020 152.800,4.800 152.800 C 4.580 152.800,4.400 153.509,4.400 154.376 C 4.400 155.243,4.220 156.064,4.000 156.200 C 3.780 156.336,3.600 157.247,3.600 158.224 C 3.600 159.201,3.420 160.000,3.200 160.000 C 2.980 160.000,2.800 160.900,2.800 162.000 C 2.800 163.100,2.620 164.000,2.400 164.000 C 2.178 164.000,2.000 165.059,2.000 166.376 C 2.000 167.683,1.820 168.864,1.600 169.000 C 1.380 169.136,1.200 170.371,1.200 171.744 C 1.200 173.207,0.993 174.447,0.700 174.740 C 0.311 175.129,0.200 180.743,0.200 200.087 C 0.200 219.608,0.307 224.969,0.700 225.100 C 1.035 225.212,1.200 226.171,1.200 228.010 C 1.200 229.518,1.380 230.864,1.600 231.000 C 1.820 231.136,2.000 232.317,2.000 233.624 C 2.000 234.941,2.178 236.000,2.400 236.000 C 2.620 236.000,2.800 236.900,2.800 238.000 C 2.800 239.100,2.980 240.000,3.200 240.000 C 3.420 240.000,3.600 240.799,3.600 241.776 C 3.600 242.753,3.780 243.664,4.000 243.800 C 4.220 243.936,4.400 244.757,4.400 245.624 C 4.400 246.491,4.580 247.200,4.800 247.200 C 5.020 247.200,5.200 247.920,5.200 248.800 C 5.200 249.680,5.380 250.400,5.600 250.400 C 5.820 250.400,6.000 251.120,6.000 252.000 C 6.000 252.880,6.180 253.600,6.400 253.600 C 6.620 253.600,6.800 254.140,6.800 254.800 C 6.800 255.460,6.980 256.000,7.200 256.000 C 7.420 256.000,7.600 256.630,7.600 257.400 C 7.600 258.170,7.780 258.800,8.000 258.800 C 8.220 258.800,8.400 259.229,8.400 259.754 C 8.400 260.778,9.440 264.553,10.037 265.695 C 10.237 266.077,10.400 266.664,10.400 267.000 C 10.400 267.336,10.559 267.923,10.753 268.305 C 10.948 268.687,11.329 269.540,11.600 270.200 C 11.871 270.860,12.252 271.713,12.447 272.095 C 12.641 272.477,12.800 273.152,12.800 273.595 C 12.800 274.038,12.980 274.400,13.200 274.400 C 13.420 274.400,13.600 274.760,13.600 275.200 C 13.600 275.640,13.780 276.000,14.000 276.000 C 14.220 276.000,14.400 276.540,14.400 277.200 C 14.400 277.860,14.580 278.400,14.800 278.400 C 15.020 278.400,15.200 278.760,15.200 279.200 C 15.200 279.640,15.380 280.000,15.600 280.000 C 15.820 280.000,16.000 280.360,16.000 280.800 C 16.000 281.240,16.180 281.600,16.400 281.600 C 16.620 281.600,16.800 281.872,16.800 282.205 C 16.800 282.538,16.980 283.168,17.200 283.605 C 17.420 284.042,17.780 284.758,18.000 285.195 C 18.220 285.632,18.400 286.262,18.400 286.595 C 18.400 286.928,18.535 287.201,18.700 287.201 C 18.865 287.202,19.450 288.192,20.000 289.400 C 20.550 290.608,21.135 291.598,21.300 291.599 C 21.465 291.599,21.600 291.960,21.600 292.400 C 21.600 292.840,21.780 293.200,22.000 293.200 C 22.220 293.200,22.400 293.560,22.400 294.000 C 22.400 294.440,22.580 294.800,22.800 294.800 C 23.020 294.800,23.200 295.036,23.200 295.325 C 23.200 295.613,23.560 296.236,24.000 296.708 C 24.440 297.180,24.800 297.775,24.800 298.029 C 24.800 298.611,26.895 302.553,27.300 302.733 C 27.465 302.807,27.600 303.044,27.600 303.261 C 27.600 303.478,28.140 304.441,28.800 305.400 C 29.460 306.359,30.000 307.297,30.000 307.484 C 30.000 307.671,30.360 308.083,30.800 308.400 C 31.240 308.717,31.600 309.257,31.600 309.600 C 31.600 309.943,31.960 310.483,32.400 310.800 C 32.840 311.117,33.200 311.615,33.200 311.906 C 33.200 313.304,36.100 315.214,40.000 316.383 C 41.650 316.878,43.450 317.424,44.000 317.595 C 44.550 317.767,45.810 318.129,46.800 318.400 C 47.790 318.671,49.050 319.031,49.600 319.200 C 53.451 320.383,54.051 320.505,54.351 320.168 C 54.531 319.966,57.281 316.290,60.462 312.000 C 63.643 307.710,68.049 301.770,70.255 298.800 C 72.460 295.830,76.387 290.520,78.980 287.000 C 81.574 283.480,84.183 279.970,84.778 279.200 C 85.374 278.430,86.500 276.810,87.281 275.600 C 88.062 274.390,91.045 270.257,93.910 266.415 C 99.813 258.499,99.435 259.554,99.799 250.000 C 101.327 209.871,105.863 175.117,110.910 164.861 C 113.634 159.326,122.457 155.723,149.400 149.147 C 154.387 147.929,161.327 146.480,163.800 146.139 C 164.680 146.017,165.571 145.756,165.780 145.559 C 165.989 145.362,166.751 145.200,167.474 145.200 C 168.197 145.200,169.556 145.027,170.494 144.816 C 171.432 144.605,173.280 144.234,174.600 143.992 C 175.920 143.750,177.945 143.354,179.100 143.112 L 181.200 142.672 181.200 134.498 C 181.200 125.657,181.223 125.765,178.711 123.025 C 178.320 122.598,178.000 122.013,178.000 121.725 C 178.000 121.436,177.863 121.200,177.696 121.200 C 177.528 121.200,176.763 119.985,175.996 118.500 C 175.228 117.015,174.465 115.740,174.300 115.667 C 174.135 115.593,174.000 115.295,174.000 115.004 C 174.000 114.714,173.614 113.694,173.143 112.738 C 171.967 110.351,171.779 109.870,170.558 106.091 C 169.576 103.054,169.293 102.613,167.115 100.726 C 159.960 94.528,157.260 83.431,162.503 81.767 C 163.135 81.567,163.232 81.287,163.024 80.260 C 162.884 79.567,162.616 78.010,162.429 76.800 C 162.242 75.590,161.964 74.124,161.811 73.542 C 161.509 72.388,162.261 59.706,162.804 56.800 C 163.026 55.610,162.998 54.949,162.720 54.850 C 160.036 53.892,161.488 49.119,166.494 42.444 L 168.111 40.287 167.218 39.614 C 164.885 37.854,170.323 34.174,180.200 30.829 C 184.995 29.205,184.604 29.484,183.804 28.262 C 183.269 27.446,183.233 27.086,183.615 26.373 C 184.787 24.182,203.137 27.142,208.723 30.423 C 210.422 31.421,210.663 31.402,210.953 30.244 C 211.677 27.361,219.763 31.058,224.497 36.436 C 226.634 38.863,227.200 39.236,227.200 38.214 C 227.200 37.892,227.561 37.435,228.003 37.199 C 231.142 35.518,235.999 49.544,235.012 57.442 C 234.845 58.783,234.962 60.463,235.335 62.073 C 236.856 68.628,236.969 69.587,236.906 75.460 L 236.841 81.520 237.967 81.986 C 242.784 83.982,239.825 94.652,232.707 100.957 C 230.410 102.991,230.118 103.437,229.225 106.288 C 228.690 108.000,228.120 109.670,227.959 110.000 C 227.799 110.330,227.367 111.320,226.999 112.200 C 225.571 115.619,223.450 119.461,220.979 123.107 L 218.400 126.909 218.400 134.802 L 218.400 142.695 220.100 142.977 C 222.492 143.375,225.008 143.841,227.800 144.403 C 230.536 144.954,233.471 145.471,235.800 145.814 C 236.680 145.944,237.760 146.207,238.200 146.400 C 238.640 146.593,239.630 146.842,240.400 146.953 C 241.170 147.064,242.610 147.336,243.600 147.556 C 244.590 147.777,245.940 148.065,246.600 148.197 C 247.777 148.433,249.306 148.808,252.300 149.594 C 253.125 149.810,256.050 150.540,258.800 151.216 C 274.248 155.010,284.807 159.166,287.687 162.585 C 290.483 165.905,292.813 174.548,295.146 190.258 C 297.261 204.495,299.019 224.933,299.995 246.600 C 300.607 260.206,299.929 258.150,306.935 267.634 C 310.271 272.150,313.226 276.239,313.503 276.722 C 313.972 277.540,316.653 281.178,331.538 301.200 C 334.727 305.490,339.136 311.430,341.336 314.400 C 343.536 317.370,345.480 319.966,345.656 320.168 C 345.949 320.505,346.552 320.382,350.400 319.200 C 350.950 319.031,352.210 318.671,353.200 318.400 C 354.190 318.129,355.450 317.767,356.000 317.595 C 356.550 317.424,358.350 316.878,360.000 316.383 C 363.900 315.214,366.800 313.304,366.800 311.906 C 366.800 311.615,367.160 311.117,367.600 310.800 C 368.040 310.483,368.400 309.943,368.400 309.600 C 368.400 309.257,368.760 308.717,369.200 308.400 C 369.640 308.083,370.000 307.671,370.000 307.484 C 370.000 307.297,370.540 306.359,371.200 305.400 C 371.860 304.441,372.400 303.463,372.400 303.228 C 372.400 302.993,372.580 302.800,372.800 302.800 C 373.020 302.800,373.200 302.440,373.200 302.000 C 373.200 301.560,373.347 301.200,373.526 301.200 C 373.874 301.200,375.200 298.642,375.200 297.970 C 375.200 297.748,375.560 297.180,376.000 296.708 C 376.440 296.236,376.800 295.613,376.800 295.325 C 376.800 295.036,376.980 294.800,377.200 294.800 C 377.420 294.800,377.600 294.440,377.600 294.000 C 377.600 293.560,377.780 293.200,378.000 293.200 C 378.220 293.200,378.400 292.840,378.400 292.400 C 378.400 291.960,378.535 291.599,378.700 291.599 C 378.865 291.598,379.450 290.608,380.000 289.400 C 380.550 288.192,381.135 287.202,381.300 287.201 C 381.465 287.201,381.600 286.928,381.600 286.595 C 381.600 286.262,381.780 285.632,382.000 285.195 C 382.220 284.758,382.580 284.042,382.800 283.605 C 383.020 283.168,383.200 282.538,383.200 282.205 C 383.200 281.872,383.380 281.600,383.600 281.600 C 383.820 281.600,384.000 281.240,384.000 280.800 C 384.000 280.360,384.180 280.000,384.400 280.000 C 384.620 280.000,384.800 279.651,384.800 279.224 C 384.800 278.797,384.980 278.336,385.200 278.200 C 385.420 278.064,385.600 277.513,385.600 276.976 C 385.600 276.439,385.780 276.000,386.000 276.000 C 386.220 276.000,386.400 275.640,386.400 275.200 C 386.400 274.760,386.580 274.400,386.800 274.400 C 387.020 274.400,387.200 274.038,387.200 273.595 C 387.200 273.152,387.359 272.477,387.553 272.095 C 387.748 271.713,388.129 270.860,388.400 270.200 C 388.671 269.540,389.052 268.687,389.247 268.305 C 389.441 267.923,389.600 267.336,389.600 267.000 C 389.600 266.664,389.763 266.077,389.963 265.695 C 390.560 264.553,391.600 260.778,391.600 259.754 C 391.600 259.229,391.780 258.800,392.000 258.800 C 392.220 258.800,392.400 258.170,392.400 257.400 C 392.400 256.630,392.580 256.000,392.800 256.000 C 393.020 256.000,393.200 255.471,393.200 254.824 C 393.200 254.177,393.380 253.536,393.600 253.400 C 393.820 253.264,394.000 252.533,394.000 251.776 C 394.000 251.019,394.180 250.400,394.400 250.400 C 394.620 250.400,394.800 249.680,394.800 248.800 C 394.800 247.920,394.980 247.200,395.200 247.200 C 395.420 247.200,395.600 246.491,395.600 245.624 C 395.600 244.757,395.780 243.936,396.000 243.800 C 396.220 243.664,396.400 242.753,396.400 241.776 C 396.400 240.799,396.580 240.000,396.800 240.000 C 397.020 240.000,397.200 239.111,397.200 238.024 C 397.200 236.937,397.380 235.936,397.600 235.800 C 397.820 235.664,398.000 234.584,398.000 233.400 C 398.000 232.216,398.180 231.136,398.400 231.000 C 398.620 230.864,398.800 229.518,398.800 228.010 C 398.800 226.171,398.965 225.212,399.300 225.100 C 399.693 224.969,399.800 219.591,399.800 200.000 C 399.800 180.409,399.693 175.031,399.300 174.900 C 398.965 174.788,398.800 173.829,398.800 171.990 C 398.800 170.482,398.620 169.136,398.400 169.000 C 398.180 168.864,398.000 167.784,398.000 166.600 C 398.000 165.416,397.820 164.336,397.600 164.200 C 397.380 164.064,397.200 163.063,397.200 161.976 C 397.200 160.889,397.020 160.000,396.800 160.000 C 396.580 160.000,396.400 159.201,396.400 158.224 C 396.400 157.247,396.220 156.336,396.000 156.200 C 395.780 156.064,395.600 155.243,395.600 154.376 C 395.600 153.509,395.420 152.800,395.200 152.800 C 394.980 152.800,394.800 152.080,394.800 151.200 C 394.800 150.320,394.620 149.600,394.400 149.600 C 394.180 149.600,394.000 148.981,394.000 148.224 C 394.000 147.467,393.820 146.736,393.600 146.600 C 393.380 146.464,393.200 145.823,393.200 145.176 C 393.200 144.529,393.020 144.000,392.800 144.000 C 392.580 144.000,392.400 143.370,392.400 142.600 C 392.400 141.830,392.220 141.200,392.000 141.200 C 391.780 141.200,391.600 140.771,391.600 140.246 C 391.600 139.222,390.560 135.447,389.963 134.305 C 389.763 133.923,389.600 133.336,389.600 133.000 C 389.600 132.664,389.441 132.077,389.247 131.695 C 389.052 131.313,388.671 130.460,388.400 129.800 C 388.129 129.140,387.748 128.287,387.553 127.905 C 387.359 127.523,387.200 126.848,387.200 126.405 C 387.200 125.962,387.020 125.600,386.800 125.600 C 386.580 125.600,386.400 125.240,386.400 124.800 C 386.400 124.360,386.220 124.000,386.000 124.000 C 385.780 124.000,385.600 123.460,385.600 122.800 C 385.600 122.140,385.420 121.600,385.200 121.600 C 384.980 121.600,384.800 121.240,384.800 120.800 C 384.800 120.360,384.620 120.000,384.400 120.000 C 384.180 120.000,384.000 119.640,384.000 119.200 C 384.000 118.760,383.820 118.400,383.600 118.400 C 383.380 118.400,383.200 118.040,383.200 117.600 C 383.200 117.160,383.020 116.800,382.800 116.800 C 382.580 116.800,382.400 116.361,382.400 115.824 C 382.400 115.287,382.220 114.736,382.000 114.600 C 381.780 114.464,381.600 114.003,381.600 113.576 C 381.600 113.149,381.420 112.800,381.200 112.800 C 380.980 112.800,380.800 112.440,380.800 112.000 C 380.800 111.560,380.654 111.200,380.475 111.200 C 380.296 111.200,379.902 110.570,379.600 109.800 C 379.298 109.030,378.904 108.400,378.725 108.400 C 378.546 108.400,378.400 108.040,378.400 107.600 C 378.400 107.160,378.220 106.800,378.000 106.800 C 377.780 106.800,377.600 106.440,377.600 106.000 C 377.600 105.560,377.420 105.200,377.200 105.200 C 376.980 105.200,376.800 104.964,376.800 104.675 C 376.800 104.387,376.440 103.764,376.000 103.292 C 375.560 102.820,375.200 102.240,375.200 102.003 C 375.200 101.371,373.157 97.422,372.749 97.267 C 372.557 97.193,372.400 96.956,372.400 96.739 C 372.400 96.522,371.860 95.559,371.200 94.600 C 370.540 93.641,370.000 92.703,370.000 92.516 C 370.000 92.329,369.640 91.917,369.200 91.600 C 368.760 91.283,368.400 90.743,368.400 90.400 C 368.400 90.057,368.040 89.517,367.600 89.200 C 367.160 88.883,366.800 88.343,366.800 88.000 C 366.800 87.657,366.440 87.117,366.000 86.800 C 365.560 86.483,365.200 85.943,365.200 85.600 C 365.200 85.257,364.840 84.717,364.400 84.400 C 363.960 84.083,363.600 83.620,363.600 83.371 C 363.600 83.122,363.060 82.354,362.400 81.663 C 361.740 80.972,361.200 80.208,361.200 79.964 C 361.200 79.720,360.660 79.017,360.000 78.400 C 359.340 77.783,358.800 77.164,358.800 77.023 C 358.800 76.752,358.486 76.352,356.700 74.349 C 356.095 73.671,355.600 72.959,355.600 72.768 C 355.600 72.577,354.833 71.651,353.895 70.711 C 352.957 69.770,351.745 68.370,351.201 67.600 C 350.658 66.830,348.410 64.439,346.207 62.287 C 341.389 57.582,342.418 58.611,337.713 53.793 C 335.561 51.590,333.172 49.342,332.405 48.799 C 331.638 48.255,330.135 46.953,329.065 45.905 C 327.995 44.857,326.949 44.000,326.741 44.000 C 326.534 44.000,325.930 43.595,325.401 43.100 C 323.937 41.731,323.260 41.200,322.977 41.200 C 322.836 41.200,322.217 40.660,321.600 40.000 C 320.983 39.340,320.280 38.800,320.036 38.800 C 319.792 38.800,319.028 38.260,318.337 37.600 C 317.646 36.940,316.878 36.400,316.629 36.400 C 316.380 36.400,315.917 36.040,315.600 35.600 C 315.283 35.160,314.743 34.800,314.400 34.800 C 314.057 34.800,313.517 34.440,313.200 34.000 C 312.883 33.560,312.343 33.200,312.000 33.200 C 311.657 33.200,311.117 32.840,310.800 32.400 C 310.483 31.960,309.943 31.600,309.600 31.600 C 309.257 31.600,308.717 31.240,308.400 30.800 C 308.083 30.360,307.671 30.000,307.484 30.000 C 307.297 30.000,306.359 29.460,305.400 28.800 C 304.441 28.140,303.478 27.600,303.261 27.600 C 303.044 27.600,302.807 27.465,302.733 27.300 C 302.553 26.895,298.611 24.800,298.029 24.800 C 297.775 24.800,297.180 24.440,296.708 24.000 C 296.236 23.560,295.613 23.200,295.325 23.200 C 295.036 23.200,294.800 23.020,294.800 22.800 C 294.800 22.580,294.440 22.400,294.000 22.400 C 293.560 22.400,293.200 22.220,293.200 22.000 C 293.200 21.780,292.840 21.600,292.400 21.600 C 291.960 21.600,291.600 21.454,291.600 21.275 C 291.600 21.096,290.970 20.702,290.200 20.400 C 289.430 20.098,288.800 19.704,288.800 19.525 C 288.800 19.346,288.440 19.200,288.000 19.200 C 287.560 19.200,287.200 19.020,287.200 18.800 C 287.200 18.580,286.928 18.400,286.595 18.400 C 286.007 18.400,285.582 18.233,283.705 17.262 C 283.213 17.008,282.538 16.800,282.205 16.800 C 281.872 16.800,281.600 16.620,281.600 16.400 C 281.600 16.180,281.240 16.000,280.800 16.000 C 280.360 16.000,280.000 15.820,280.000 15.600 C 280.000 15.380,279.640 15.200,279.200 15.200 C 278.760 15.200,278.400 15.020,278.400 14.800 C 278.400 14.580,277.860 14.400,277.200 14.400 C 276.540 14.400,276.000 14.220,276.000 14.000 C 276.000 13.780,275.640 13.600,275.200 13.600 C 274.760 13.600,274.400 13.420,274.400 13.200 C 274.400 12.980,274.038 12.800,273.595 12.800 C 273.152 12.800,272.477 12.641,272.095 12.447 C 271.713 12.252,270.860 11.871,270.200 11.600 C 269.540 11.329,268.687 10.948,268.305 10.753 C 267.923 10.559,267.336 10.400,267.000 10.400 C 266.664 10.400,266.077 10.237,265.695 10.037 C 264.553 9.440,260.778 8.400,259.754 8.400 C 259.229 8.400,258.800 8.220,258.800 8.000 C 258.800 7.780,258.170 7.600,257.400 7.600 C 256.630 7.600,256.000 7.420,256.000 7.200 C 256.000 6.980,255.460 6.800,254.800 6.800 C 254.140 6.800,253.600 6.620,253.600 6.400 C 253.600 6.180,252.880 6.000,252.000 6.000 C 251.120 6.000,250.400 5.820,250.400 5.600 C 250.400 5.380,249.680 5.200,248.800 5.200 C 247.920 5.200,247.200 5.020,247.200 4.800 C 247.200 4.580,246.491 4.400,245.624 4.400 C 244.757 4.400,243.936 4.220,243.800 4.000 C 243.664 3.780,242.753 3.600,241.776 3.600 C 240.799 3.600,240.000 3.420,240.000 3.200 C 240.000 2.980,239.100 2.800,238.000 2.800 C 236.900 2.800,236.000 2.620,236.000 2.400 C 236.000 2.178,234.941 2.000,233.624 2.000 C 232.317 2.000,231.136 1.820,231.000 1.600 C 230.864 1.380,229.518 1.200,228.010 1.200 C 226.193 1.200,225.211 1.034,225.103 0.708 C 224.941 0.222,187.291 -0.126,178.300 0.275 M137.458 209.431 C 137.147 214.262,136.616 219.628,135.590 228.300 C 131.317 264.426,129.414 272.717,123.770 279.800 C 119.486 285.175,108.335 296.420,105.000 298.727 C 104.780 298.879,102.440 300.895,99.800 303.207 C 95.203 307.233,90.735 310.990,86.000 314.813 C 84.790 315.790,83.710 316.698,83.600 316.831 C 83.490 316.965,80.160 319.626,76.200 322.746 C 72.240 325.866,68.460 328.873,67.800 329.428 L 66.600 330.438 68.200 330.228 C 69.080 330.112,70.565 329.833,71.500 329.608 C 77.540 328.158,79.648 327.729,87.100 326.434 C 93.786 325.273,98.972 324.526,104.000 324.002 C 105.870 323.806,109.920 323.379,113.000 323.052 C 116.080 322.726,122.290 322.256,126.800 322.009 C 131.310 321.762,135.869 321.389,136.931 321.180 C 137.992 320.971,141.007 320.800,143.631 320.800 L 148.400 320.800 148.400 281.128 C 148.400 257.748,148.247 240.952,148.027 240.228 C 147.822 239.553,147.441 238.190,147.181 237.200 C 146.920 236.210,146.569 234.950,146.400 234.400 C 146.231 233.850,145.874 232.590,145.607 231.600 C 145.340 230.610,144.960 229.487,144.761 229.105 C 144.562 228.723,144.400 227.969,144.400 227.429 C 144.400 226.889,144.220 226.336,144.000 226.200 C 143.780 226.064,143.600 225.511,143.600 224.971 C 143.600 224.431,143.442 223.677,143.249 223.295 C 142.913 222.629,142.727 222.028,141.608 218.000 C 141.334 217.010,140.970 215.840,140.800 215.400 C 140.630 214.960,140.266 213.790,139.992 212.800 C 137.783 204.844,137.756 204.808,137.458 209.431 M261.721 206.600 C 261.457 207.260,260.863 209.150,260.400 210.800 C 259.937 212.450,259.409 214.250,259.226 214.800 C 259.043 215.350,258.671 216.610,258.400 217.600 C 258.129 218.590,257.769 219.850,257.600 220.400 C 257.431 220.950,257.066 222.210,256.789 223.200 C 256.511 224.190,256.019 225.810,255.695 226.800 C 255.370 227.790,254.936 229.230,254.730 230.000 C 254.343 231.444,253.816 233.307,253.203 235.400 C 251.350 241.727,251.472 238.795,251.313 281.100 L 251.164 320.800 256.151 320.800 C 258.895 320.800,262.008 320.971,263.069 321.179 C 264.131 321.388,268.600 321.760,273.000 322.007 C 280.190 322.410,289.949 323.216,294.800 323.808 C 303.343 324.849,306.722 325.348,315.300 326.833 C 319.714 327.597,323.751 328.448,328.474 329.613 C 333.049 330.740,333.918 330.579,331.798 328.998 C 329.696 327.430,317.066 317.434,315.680 316.241 C 315.086 315.730,311.720 312.914,308.200 309.983 C 304.680 307.052,300.366 303.382,298.614 301.827 C 296.861 300.272,295.241 298.877,295.014 298.726 C 289.491 295.062,274.959 279.206,272.547 274.211 C 270.579 270.136,267.922 256.804,266.007 241.400 C 265.761 239.420,265.396 236.540,265.196 235.000 C 264.783 231.809,264.203 226.735,263.621 221.200 C 263.401 219.110,263.030 215.600,262.798 213.400 C 262.565 211.200,262.336 208.500,262.288 207.400 C 262.201 205.419,262.196 205.411,261.721 206.600 M172.200 385.833 C 170.542 386.199,162.612 387.734,152.800 389.589 C 149.170 390.275,145.345 391.042,144.300 391.294 C 142.375 391.757,141.736 392.400,143.200 392.400 C 143.640 392.400,144.000 392.580,144.000 392.800 C 144.000 393.020,144.529 393.200,145.176 393.200 C 145.823 393.200,146.464 393.380,146.600 393.600 C 146.736 393.820,147.467 394.000,148.224 394.000 C 148.981 394.000,149.600 394.180,149.600 394.400 C 149.600 394.620,150.320 394.800,151.200 394.800 C 152.080 394.800,152.800 394.980,152.800 395.200 C 152.800 395.420,153.509 395.600,154.376 395.600 C 155.243 395.600,156.064 395.780,156.200 396.000 C 156.336 396.220,157.247 396.400,158.224 396.400 C 159.201 396.400,160.000 396.580,160.000 396.800 C 160.000 397.020,160.990 397.200,162.200 397.200 C 163.410 397.200,164.400 397.380,164.400 397.600 C 164.400 397.820,165.379 398.000,166.576 398.000 C 167.773 398.000,168.864 398.180,169.000 398.400 C 169.136 398.620,170.482 398.800,171.990 398.800 C 173.829 398.800,174.788 398.965,174.900 399.300 C 175.144 400.032,224.856 400.032,225.100 399.300 C 225.212 398.965,226.171 398.800,228.010 398.800 C 229.518 398.800,230.864 398.620,231.000 398.400 C 231.136 398.180,232.216 398.000,233.400 398.000 C 234.584 398.000,235.664 397.820,235.800 397.600 C 235.936 397.380,236.937 397.200,238.024 397.200 C 239.111 397.200,240.000 397.020,240.000 396.800 C 240.000 396.580,240.675 396.397,241.500 396.394 C 246.151 396.375,242.798 395.086,236.334 394.408 C 230.630 393.810,221.923 392.788,219.100 392.385 C 217.615 392.173,215.185 391.826,213.700 391.614 C 212.215 391.402,209.560 391.032,207.800 390.791 C 204.235 390.302,202.708 390.074,193.200 388.605 C 184.862 387.316,181.812 386.813,179.800 386.395 C 177.636 385.945,173.185 385.616,172.200 385.833 " stroke="none" fill="#fbcc14" fill-rule="evenodd"></path><path id="path3" d="M185.091 25.889 C 185.801 25.977,187.061 25.979,187.891 25.892 C 188.721 25.805,188.140 25.733,186.600 25.731 C 185.060 25.729,184.381 25.800,185.091 25.889 M234.924 55.400 C 234.926 56.720,235.001 57.212,235.090 56.493 C 235.179 55.774,235.177 54.694,235.086 54.093 C 234.995 53.492,234.922 54.080,234.924 55.400 M177.406 58.359 C 176.749 58.744,175.751 59.946,175.188 61.029 C 174.068 63.188,173.620 64.977,171.995 73.800 C 171.123 78.535,169.114 82.000,167.240 82.000 C 165.571 82.000,163.671 81.228,163.470 80.469 C 163.343 79.988,163.280 80.045,163.246 80.673 C 163.221 81.153,162.868 81.651,162.463 81.780 C 157.260 83.432,159.990 94.554,167.115 100.726 C 169.293 102.613,169.576 103.054,170.558 106.091 C 171.779 109.870,171.967 110.351,173.143 112.738 C 173.614 113.694,174.000 114.714,174.000 115.004 C 174.000 115.295,174.135 115.593,174.300 115.667 C 174.465 115.740,175.228 117.015,175.996 118.500 C 176.763 119.985,177.528 121.200,177.696 121.200 C 177.863 121.200,178.000 121.436,178.000 121.725 C 178.000 122.013,178.320 122.598,178.711 123.025 C 181.223 125.765,181.200 125.657,181.200 134.498 L 181.200 142.672 179.000 143.136 C 177.790 143.391,175.765 143.787,174.500 144.016 C 173.235 144.245,171.432 144.605,170.494 144.816 C 169.556 145.027,168.172 145.200,167.418 145.200 C 166.664 145.200,165.933 145.384,165.794 145.609 C 165.628 145.878,166.100 145.929,167.171 145.758 L 168.800 145.498 168.800 157.049 C 168.800 165.464,168.957 169.421,169.379 171.623 C 175.984 206.143,224.016 206.143,230.621 171.623 C 231.043 169.421,231.200 165.465,231.200 157.055 L 231.200 145.509 233.100 145.792 C 234.145 145.948,234.859 145.932,234.686 145.757 C 234.514 145.582,233.434 145.315,232.286 145.163 C 231.139 145.010,229.120 144.669,227.800 144.403 C 224.993 143.838,222.481 143.373,220.085 142.975 L 218.369 142.691 218.485 134.579 C 218.609 125.812,218.642 125.920,216.600 128.334 C 212.775 132.856,206.291 136.126,203.600 134.892 C 191.935 129.544,182.046 112.585,179.172 93.000 C 178.674 89.606,178.818 76.333,179.365 75.116 C 179.641 74.504,179.304 74.420,176.137 74.316 L 172.601 74.200 172.715 72.600 C 172.778 71.720,173.019 70.100,173.251 69.000 C 175.430 58.666,177.258 56.853,183.600 58.733 C 191.464 61.066,192.230 61.205,198.400 61.430 C 201.810 61.554,205.383 61.507,206.340 61.327 C 207.527 61.103,205.513 60.980,200.000 60.939 C 194.734 60.900,191.767 60.727,191.480 60.440 C 191.238 60.198,190.457 60.000,189.744 60.000 C 189.031 60.000,188.336 59.820,188.200 59.600 C 188.064 59.380,187.434 59.200,186.800 59.200 C 186.166 59.200,185.536 59.020,185.400 58.800 C 185.264 58.580,184.634 58.400,184.000 58.400 C 183.366 58.400,182.736 58.220,182.600 58.000 C 182.202 57.355,178.705 57.597,177.406 58.359 M217.000 58.097 C 216.340 58.324,215.549 58.579,215.243 58.664 C 213.469 59.157,215.431 59.036,217.602 58.519 C 222.861 57.266,224.808 59.486,226.617 68.800 C 226.938 70.450,227.200 72.417,227.200 73.172 C 227.200 76.097,228.833 79.754,231.091 81.884 L 232.877 83.568 232.418 88.684 C 231.949 93.915,231.458 97.102,230.733 99.621 C 229.824 102.780,230.358 103.062,232.917 100.775 C 239.911 94.528,242.708 83.950,237.894 81.956 L 236.695 81.459 236.917 76.830 C 237.039 74.283,236.998 71.210,236.826 70.000 C 236.584 68.301,236.498 69.213,236.450 74.000 C 236.381 80.846,236.374 80.872,234.440 81.534 C 232.542 82.184,232.244 82.135,231.092 80.983 C 229.312 79.203,228.539 77.119,227.608 71.600 C 227.404 70.390,227.041 68.500,226.801 67.400 C 226.561 66.300,226.258 64.879,226.128 64.243 C 225.089 59.142,221.329 56.611,217.000 58.097 M212.200 59.600 C 211.905 60.078,212.689 60.078,213.800 59.600 C 214.514 59.293,214.485 59.253,213.524 59.228 C 212.932 59.213,212.336 59.380,212.200 59.600 M208.800 60.400 C 208.042 60.890,209.270 60.890,210.800 60.400 C 211.780 60.086,211.776 60.079,210.600 60.046 C 209.940 60.027,209.130 60.187,208.800 60.400 M161.640 71.033 C 161.662 72.335,161.825 73.850,162.002 74.400 C 162.187 74.977,162.231 74.046,162.106 72.200 C 161.846 68.378,161.584 67.722,161.640 71.033 M162.406 77.233 C 162.409 77.985,162.577 78.861,162.779 79.179 C 163.016 79.554,163.065 79.130,162.918 77.979 C 162.635 75.770,162.398 75.425,162.406 77.233 M162.000 146.400 C 161.213 146.909,162.616 146.909,163.800 146.400 C 164.533 146.085,164.516 146.054,163.600 146.034 C 163.050 146.022,162.330 146.187,162.000 146.400 M236.400 146.400 C 237.836 146.860,238.484 146.860,238.200 146.400 C 238.064 146.180,237.378 146.018,236.676 146.040 C 235.457 146.078,235.445 146.094,236.400 146.400 M158.000 147.200 C 157.213 147.709,158.616 147.709,159.800 147.200 C 160.533 146.885,160.516 146.854,159.600 146.834 C 159.050 146.822,158.330 146.987,158.000 147.200 M240.200 147.200 C 241.384 147.709,242.787 147.709,242.000 147.200 C 241.670 146.987,240.950 146.822,240.400 146.834 C 239.484 146.854,239.467 146.885,240.200 147.200 M154.400 148.000 C 153.613 148.509,155.016 148.509,156.200 148.000 C 156.933 147.685,156.916 147.654,156.000 147.634 C 155.450 147.622,154.730 147.787,154.400 148.000 M244.000 148.000 C 245.542 148.494,246.364 148.494,245.600 148.000 C 245.270 147.787,244.550 147.627,244.000 147.646 L 243.000 147.680 244.000 148.000 M150.800 148.800 C 150.013 149.309,151.416 149.309,152.600 148.800 C 153.333 148.485,153.316 148.454,152.400 148.434 C 151.850 148.422,151.130 148.587,150.800 148.800 M247.400 148.800 C 248.584 149.309,249.987 149.309,249.200 148.800 C 248.870 148.587,248.150 148.422,247.600 148.434 C 246.684 148.454,246.667 148.485,247.400 148.800 M147.909 149.424 C 147.786 149.548,145.461 150.186,142.742 150.844 C 122.701 155.691,113.409 159.782,110.910 164.861 C 105.863 175.117,101.327 209.871,99.799 250.000 C 99.435 259.554,99.813 258.499,93.910 266.415 C 91.045 270.257,88.062 274.390,87.281 275.600 C 86.500 276.810,85.374 278.430,84.778 279.200 C 84.183 279.970,81.574 283.480,78.980 287.000 C 76.387 290.520,72.460 295.830,70.255 298.800 C 68.049 301.770,63.643 307.710,60.462 312.000 C 57.281 316.290,54.531 319.966,54.351 320.168 C 54.051 320.505,53.451 320.383,49.600 319.200 C 49.050 319.031,47.790 318.671,46.800 318.400 C 45.810 318.129,44.550 317.767,44.000 317.595 C 43.450 317.423,41.920 316.973,40.600 316.594 C 37.829 315.800,34.800 314.408,34.800 313.929 C 34.800 313.748,34.361 313.600,33.824 313.600 C 33.287 313.600,32.736 313.420,32.600 313.200 C 32.464 312.980,31.823 312.800,31.176 312.800 C 30.529 312.800,30.000 312.620,30.000 312.400 C 30.000 312.180,29.584 312.000,29.075 312.000 C 28.566 312.000,27.171 311.519,25.975 310.932 C 23.728 309.828,22.426 309.692,19.000 310.202 C 15.674 310.697,15.200 311.429,15.200 316.070 C 15.200 320.095,15.007 320.598,14.000 319.200 C 13.683 318.760,13.103 318.400,12.712 318.400 C 12.320 318.400,12.000 318.220,12.000 318.000 C 12.000 317.384,8.816 317.526,8.171 318.171 C 7.266 319.077,9.810 325.788,11.860 327.902 C 12.128 328.179,12.462 328.764,12.601 329.202 C 12.740 329.641,13.022 330.000,13.227 330.000 C 13.432 330.000,13.600 330.236,13.600 330.525 C 13.600 330.813,13.960 331.436,14.400 331.908 C 14.840 332.380,15.200 332.927,15.200 333.124 C 15.200 333.321,15.740 334.046,16.400 334.737 C 17.060 335.428,17.600 336.275,17.600 336.620 C 17.600 336.965,17.780 337.136,18.000 337.000 C 18.220 336.864,18.400 336.944,18.400 337.177 C 18.400 337.769,21.680 340.800,22.321 340.800 C 22.611 340.800,22.736 340.980,22.600 341.200 C 22.464 341.420,22.723 341.600,23.176 341.600 C 23.629 341.600,24.000 341.780,24.000 342.000 C 24.000 342.220,24.360 342.400,24.800 342.400 C 25.240 342.400,25.600 342.580,25.600 342.800 C 25.600 343.020,25.870 343.200,26.200 343.200 C 26.530 343.200,26.800 343.380,26.800 343.600 C 26.800 343.820,27.160 344.000,27.600 344.000 C 28.040 344.000,28.400 344.180,28.400 344.400 C 28.400 344.620,28.940 344.800,29.600 344.800 C 30.260 344.800,30.800 344.978,30.800 345.195 C 30.800 345.826,36.712 345.217,39.400 344.310 C 44.037 342.743,60.275 334.822,63.778 332.418 C 64.670 331.805,66.030 331.165,66.800 330.995 C 67.933 330.746,68.054 330.635,67.433 330.415 C 66.757 330.175,66.852 330.004,68.233 328.974 C 70.438 327.331,83.358 317.119,83.600 316.829 C 83.710 316.697,84.790 315.790,86.000 314.813 C 90.735 310.990,95.203 307.233,99.800 303.207 C 102.440 300.895,104.780 298.879,105.000 298.727 C 110.670 294.805,124.614 279.699,127.188 274.690 C 129.595 270.006,132.249 256.164,134.780 235.100 C 136.551 220.355,137.085 215.236,137.460 209.400 C 137.639 206.622,137.823 205.644,138.063 206.200 C 138.305 206.759,138.344 206.560,138.194 205.540 L 137.979 204.079 140.013 203.558 C 142.405 202.945,144.787 201.049,145.848 198.913 C 146.551 197.499,146.613 195.862,146.800 173.836 L 147.000 150.271 148.400 149.766 C 149.379 149.413,149.549 149.252,148.967 149.230 C 148.508 149.214,148.032 149.301,147.909 149.424 M251.600 149.766 L 253.000 150.271 253.200 173.836 C 253.438 201.887,253.333 201.414,259.789 203.449 C 261.585 204.015,261.968 204.286,261.803 204.874 C 261.136 207.254,261.132 207.458,261.769 206.400 C 262.348 205.440,262.372 205.503,262.386 207.979 C 262.394 209.398,262.576 212.008,262.790 213.779 C 263.005 215.551,263.370 218.800,263.601 221.000 C 264.196 226.672,264.775 231.750,265.196 235.000 C 265.396 236.540,265.761 239.420,266.007 241.400 C 267.264 251.513,268.902 261.175,270.417 267.411 C 272.055 274.151,273.134 276.181,278.400 282.431 C 281.865 286.544,292.764 297.234,295.014 298.726 C 295.241 298.877,296.861 300.272,298.614 301.827 C 300.366 303.382,304.680 307.052,308.200 309.983 C 311.720 312.914,315.086 315.730,315.680 316.241 C 317.053 317.423,329.694 327.429,331.741 328.954 C 332.857 329.787,333.138 330.191,332.761 330.424 C 332.401 330.646,332.604 330.833,333.421 331.031 C 334.069 331.188,335.050 331.629,335.600 332.011 C 339.550 334.756,356.368 342.957,361.400 344.592 C 363.509 345.278,369.200 345.717,369.200 345.195 C 369.200 344.978,369.740 344.800,370.400 344.800 C 371.060 344.800,371.600 344.620,371.600 344.400 C 371.600 344.180,371.926 344.000,372.325 344.000 C 372.723 344.000,373.436 343.640,373.908 343.200 C 374.380 342.760,375.044 342.400,375.383 342.400 C 375.722 342.400,376.000 342.264,376.000 342.098 C 376.000 341.931,376.495 341.575,377.100 341.305 C 378.271 340.782,382.399 337.055,382.401 336.519 C 382.401 336.344,382.941 335.570,383.600 334.800 C 384.259 334.030,384.799 333.175,384.799 332.900 C 384.800 332.625,384.980 332.400,385.200 332.400 C 385.420 332.400,385.600 332.164,385.600 331.875 C 385.600 331.587,385.960 330.964,386.400 330.492 C 386.840 330.020,387.200 329.480,387.200 329.292 C 387.200 329.104,387.524 328.602,387.920 328.175 C 390.177 325.744,392.769 319.111,391.829 318.171 C 391.184 317.526,388.000 317.384,388.000 318.000 C 388.000 318.220,387.764 318.400,387.475 318.400 C 387.187 318.400,386.564 318.760,386.092 319.200 C 384.822 320.384,384.800 320.331,384.800 316.070 C 384.800 311.400,384.315 310.652,381.000 310.218 C 377.318 309.735,376.231 309.848,374.000 310.944 C 372.790 311.539,371.395 312.059,370.900 312.100 C 370.405 312.141,370.000 312.315,370.000 312.487 C 370.000 312.659,369.471 312.800,368.824 312.800 C 368.177 312.800,367.536 312.980,367.400 313.200 C 367.264 313.420,366.713 313.600,366.176 313.600 C 365.639 313.600,365.200 313.748,365.200 313.929 C 365.200 314.408,362.171 315.800,359.400 316.594 C 358.080 316.973,356.550 317.423,356.000 317.595 C 355.450 317.767,354.190 318.129,353.200 318.400 C 352.210 318.671,350.950 319.031,350.400 319.200 C 346.552 320.382,345.949 320.505,345.656 320.168 C 345.480 319.966,343.536 317.370,341.336 314.400 C 339.136 311.430,334.727 305.490,331.538 301.200 C 316.653 281.178,313.972 277.540,313.503 276.722 C 313.226 276.239,310.271 272.150,306.935 267.634 C 299.929 258.150,300.607 260.206,299.995 246.600 C 298.531 214.076,295.328 185.356,291.678 172.000 C 289.177 162.853,287.218 160.668,278.400 157.196 C 273.364 155.213,263.778 152.328,257.200 150.815 C 255.110 150.335,252.987 149.775,252.481 149.571 C 251.976 149.367,251.256 149.214,250.881 149.230 C 250.507 149.247,250.830 149.488,251.600 149.766 M251.849 239.015 C 251.712 239.373,251.615 239.966,251.634 240.333 C 251.653 240.700,251.827 240.469,252.021 239.820 C 252.398 238.558,252.265 237.933,251.849 239.015 M251.054 244.256 C 250.530 248.083,250.763 320.813,251.300 320.981 C 252.342 321.306,263.766 321.538,262.800 321.215 C 262.250 321.031,259.409 320.862,256.487 320.840 L 251.174 320.800 251.287 281.600 C 251.349 260.040,251.379 242.400,251.354 242.400 C 251.329 242.400,251.194 243.235,251.054 244.256 M148.498 282.500 L 148.400 320.800 143.300 320.840 C 140.495 320.862,137.750 321.030,137.200 321.213 C 136.637 321.400,138.908 321.447,142.400 321.319 C 145.810 321.194,148.646 321.056,148.702 321.011 C 148.758 320.966,148.757 303.665,148.700 282.565 L 148.596 244.200 148.498 282.500 M25.100 320.783 C 25.595 321.249,26.000 321.524,26.000 321.393 C 26.000 321.262,26.540 321.474,27.200 321.864 C 27.860 322.254,28.400 322.714,28.400 322.886 C 28.400 323.059,28.630 323.200,28.911 323.200 C 29.571 323.200,30.800 324.634,30.800 325.405 C 30.800 325.732,30.980 326.000,31.200 326.000 C 31.420 326.000,31.600 326.270,31.600 326.600 C 31.600 326.930,31.390 327.200,31.133 327.200 C 30.877 327.200,30.782 327.315,30.923 327.456 C 31.296 327.830,29.919 330.000,29.308 330.000 C 29.023 330.000,28.426 330.225,27.982 330.500 C 27.457 330.825,27.075 330.860,26.888 330.600 C 26.730 330.380,26.340 330.143,26.022 330.074 C 24.895 329.828,23.651 328.011,23.442 326.307 C 22.588 319.335,22.803 318.618,25.100 320.783 M376.925 322.500 C 376.639 327.483,375.596 330.000,373.817 330.000 C 373.478 330.000,373.200 330.180,373.200 330.400 C 373.200 330.620,372.840 330.800,372.400 330.800 C 371.960 330.800,371.600 330.620,371.600 330.400 C 371.600 330.180,371.279 330.000,370.886 330.000 C 370.206 330.000,368.406 327.607,369.077 327.594 C 369.255 327.591,369.138 327.422,368.818 327.220 C 367.929 326.657,369.882 323.200,371.089 323.200 C 371.370 323.200,371.600 323.020,371.600 322.800 C 371.600 322.580,371.787 322.400,372.016 322.400 C 372.373 322.400,374.597 321.003,375.200 320.400 C 375.357 320.243,376.796 319.331,377.057 319.224 C 377.088 319.211,377.029 320.685,376.925 322.500 M129.907 321.890 C 130.626 321.979,131.706 321.977,132.307 321.886 C 132.908 321.795,132.320 321.722,131.000 321.724 C 129.680 321.726,129.188 321.801,129.907 321.890 M267.907 321.890 C 268.626 321.979,269.706 321.977,270.307 321.886 C 270.908 321.795,270.320 321.722,269.000 321.724 C 267.680 321.726,267.188 321.801,267.907 321.890 M117.900 322.682 C 118.395 322.778,119.205 322.778,119.700 322.682 C 120.195 322.587,119.790 322.509,118.800 322.509 C 117.810 322.509,117.405 322.587,117.900 322.682 M279.900 322.682 C 280.395 322.778,281.205 322.778,281.700 322.682 C 282.195 322.587,281.790 322.509,280.800 322.509 C 279.810 322.509,279.405 322.587,279.900 322.682 M289.300 323.476 C 289.685 323.576,290.315 323.576,290.700 323.476 C 291.085 323.375,290.770 323.293,290.000 323.293 C 289.230 323.293,288.915 323.375,289.300 323.476 M102.100 324.276 C 102.485 324.376,103.115 324.376,103.500 324.276 C 103.885 324.175,103.570 324.093,102.800 324.093 C 102.030 324.093,101.715 324.175,102.100 324.276 M95.200 350.262 C 94.650 350.340,90.060 350.588,85.000 350.812 C 73.912 351.303,67.509 351.946,61.600 353.160 C 60.610 353.364,59.080 353.651,58.200 353.798 C 57.320 353.946,56.150 354.211,55.600 354.387 C 55.050 354.563,53.790 354.934,52.800 355.210 C 38.270 359.273,27.493 366.046,24.073 373.266 C 22.794 375.965,21.865 382.000,22.728 382.000 C 22.960 382.000,23.159 382.315,23.170 382.700 C 23.211 384.184,23.344 384.758,23.606 384.596 C 23.757 384.503,24.132 384.916,24.440 385.514 C 25.165 386.919,27.895 389.651,29.286 390.364 C 29.884 390.670,30.261 391.101,30.125 391.322 C 29.988 391.543,30.070 391.604,30.306 391.458 C 30.542 391.312,30.982 391.439,31.282 391.740 C 31.583 392.040,32.496 392.528,33.311 392.822 C 34.295 393.178,34.626 393.463,34.296 393.673 C 33.970 393.880,34.112 393.990,34.709 393.994 C 35.623 394.000,41.470 396.250,42.180 396.869 C 42.389 397.051,43.053 397.200,43.656 397.200 C 44.259 397.200,44.864 397.380,45.000 397.600 C 45.136 397.820,45.837 398.000,46.557 398.000 C 47.277 398.000,47.990 398.124,48.141 398.275 C 48.436 398.570,49.044 398.656,52.263 398.863 C 53.398 398.936,54.259 399.105,54.175 399.240 C 53.872 399.730,63.335 400.015,77.400 399.940 C 85.320 399.898,91.260 399.794,90.600 399.711 C 89.940 399.627,88.833 399.298,88.140 398.979 C 87.446 398.661,86.348 398.400,85.699 398.400 C 85.050 398.400,83.998 398.242,83.360 398.050 C 82.722 397.857,81.210 397.479,80.000 397.210 C 66.134 394.123,55.916 386.342,55.922 378.876 C 55.932 365.628,77.376 354.387,108.400 351.366 C 122.160 350.026,122.148 350.102,108.600 350.111 C 101.780 350.116,95.750 350.184,95.200 350.262 M298.966 354.854 C 298.377 355.811,289.543 358.834,280.200 361.275 C 279.320 361.505,278.150 361.831,277.600 362.000 C 276.451 362.353,273.298 363.175,268.400 364.400 C 267.520 364.620,266.080 364.980,265.200 365.200 C 264.320 365.420,262.925 365.771,262.100 365.981 C 257.307 367.199,231.064 373.241,224.600 374.616 C 222.840 374.990,220.770 375.437,220.000 375.608 C 216.828 376.314,214.108 376.907,212.600 377.222 C 211.720 377.406,210.190 377.747,209.200 377.979 C 208.210 378.212,206.410 378.598,205.200 378.838 C 203.990 379.078,202.235 379.437,201.300 379.637 C 200.365 379.837,198.835 380.163,197.900 380.363 C 196.288 380.707,193.350 381.295,189.800 381.985 C 188.920 382.156,186.310 382.705,184.000 383.205 C 181.690 383.705,178.270 384.419,176.400 384.791 L 173.000 385.467 175.400 385.751 C 176.720 385.908,178.700 386.200,179.800 386.400 C 183.876 387.144,186.761 387.619,193.200 388.609 C 203.073 390.128,204.317 390.314,207.800 390.791 C 209.560 391.032,212.215 391.402,213.700 391.614 C 215.185 391.826,217.615 392.173,219.100 392.385 C 220.585 392.597,225.220 393.146,229.400 393.606 C 238.023 394.554,244.336 395.573,244.641 396.066 C 244.754 396.250,246.557 396.400,248.647 396.400 C 250.737 396.400,252.349 396.559,252.229 396.752 C 252.110 396.946,253.944 397.135,256.306 397.173 C 258.668 397.210,260.771 397.412,260.980 397.621 C 261.189 397.829,263.563 398.000,266.256 398.000 C 268.949 398.000,271.255 398.165,271.379 398.366 C 271.504 398.568,274.760 398.755,278.616 398.781 C 282.472 398.808,286.092 399.007,286.660 399.223 C 287.993 399.730,320.295 399.708,320.472 399.199 C 320.542 398.997,323.255 398.807,326.500 398.777 C 329.745 398.747,332.400 398.560,332.400 398.361 C 332.400 398.163,334.009 398.000,335.976 398.000 C 337.943 398.000,339.664 397.820,339.800 397.600 C 339.936 397.380,341.196 397.200,342.600 397.200 C 344.004 397.200,345.264 397.020,345.400 396.800 C 345.536 396.580,346.526 396.400,347.600 396.400 C 348.674 396.400,349.664 396.220,349.800 396.000 C 349.936 395.780,350.811 395.600,351.744 395.600 C 352.677 395.600,353.611 395.429,353.821 395.219 C 354.030 395.010,354.876 394.793,355.701 394.737 C 356.525 394.682,357.200 394.493,357.200 394.318 C 357.200 394.143,357.740 394.000,358.400 394.000 C 359.060 394.000,359.600 393.820,359.600 393.600 C 359.600 393.380,360.320 393.200,361.200 393.200 C 362.080 393.200,362.801 393.065,362.803 392.900 C 362.807 392.490,364.790 391.600,365.700 391.600 C 366.107 391.600,367.016 391.293,367.720 390.917 C 368.424 390.541,369.090 390.226,369.200 390.216 C 369.310 390.207,370.120 389.752,371.000 389.206 C 371.880 388.660,372.765 388.140,372.966 388.051 C 377.549 386.026,378.142 378.969,374.182 373.575 C 367.768 364.838,350.542 358.191,327.400 355.522 C 323.230 355.041,299.198 354.476,298.966 354.854 " stroke="none" fill="#fba9a1" fill-rule="evenodd"></path><path id="path4" d="M138.600 321.607 C 137.060 321.769,134.101 321.923,132.023 321.950 C 125.050 322.042,105.883 323.898,93.800 325.651 C 80.950 327.515,66.107 330.872,63.778 332.439 C 61.924 333.687,49.779 339.909,45.000 342.059 C 40.158 344.238,37.295 345.099,34.106 345.337 C 31.810 345.508,31.012 345.744,30.250 346.476 C 29.721 346.984,28.683 347.944,27.944 348.608 C 27.205 349.273,26.150 350.487,25.600 351.306 C 25.050 352.124,24.465 352.796,24.300 352.797 C 24.135 352.799,24.000 353.036,24.000 353.325 C 24.000 353.613,23.640 354.236,23.200 354.708 C 22.760 355.180,22.400 355.844,22.400 356.183 C 22.400 356.522,22.220 356.800,22.000 356.800 C 21.780 356.800,21.600 357.160,21.600 357.600 C 21.600 358.040,21.420 358.400,21.200 358.400 C 20.980 358.400,20.800 358.940,20.800 359.600 C 20.800 360.260,20.620 360.800,20.400 360.800 C 20.180 360.800,20.000 361.610,20.000 362.600 C 20.000 363.590,19.820 364.400,19.600 364.400 C 19.071 364.400,19.071 371.873,19.600 372.200 C 19.820 372.336,20.000 373.247,20.000 374.224 C 20.000 375.201,20.180 376.000,20.400 376.000 C 20.620 376.000,20.800 376.720,20.800 377.600 C 20.800 378.480,20.980 379.200,21.200 379.200 C 21.420 379.200,21.600 379.549,21.600 379.976 C 21.600 382.011,22.368 380.894,22.612 378.504 C 23.605 368.771,34.578 360.305,52.800 355.210 C 53.790 354.934,55.050 354.563,55.600 354.387 C 56.150 354.211,57.320 353.946,58.200 353.798 C 59.080 353.651,60.610 353.364,61.600 353.160 C 80.540 349.268,122.312 349.276,197.000 353.186 C 201.400 353.416,205.361 353.686,205.803 353.786 C 207.044 354.065,207.455 353.605,208.544 350.710 C 213.970 336.294,220.667 331.381,229.254 335.518 C 230.713 336.221,234.395 338.328,237.435 340.200 C 244.049 344.272,246.347 345.205,249.715 345.186 C 252.219 345.171,252.829 345.044,261.200 342.785 C 276.477 338.662,293.799 343.326,298.632 352.863 L 299.613 354.800 309.792 354.800 C 347.597 354.800,376.800 366.240,376.800 381.050 C 376.800 382.233,376.980 383.200,377.200 383.200 C 377.420 383.200,377.600 382.761,377.600 382.224 C 377.600 381.687,377.780 381.136,378.000 381.000 C 378.220 380.864,378.400 380.403,378.400 379.976 C 378.400 379.549,378.580 379.200,378.800 379.200 C 379.020 379.200,379.200 378.480,379.200 377.600 C 379.200 376.720,379.380 376.000,379.600 376.000 C 379.820 376.000,380.000 375.201,380.000 374.224 C 380.000 373.247,380.180 372.336,380.400 372.200 C 380.621 372.063,380.800 370.263,380.800 368.176 C 380.800 365.925,380.638 364.400,380.400 364.400 C 380.180 364.400,380.000 363.590,380.000 362.600 C 380.000 361.610,379.820 360.800,379.600 360.800 C 379.380 360.800,379.200 360.260,379.200 359.600 C 379.200 358.940,379.020 358.400,378.800 358.400 C 378.580 358.400,378.400 358.040,378.400 357.600 C 378.400 357.160,378.220 356.800,378.000 356.800 C 377.780 356.800,377.600 356.480,377.600 356.088 C 377.600 355.697,377.240 355.117,376.800 354.800 C 376.360 354.483,376.000 353.994,376.000 353.715 C 376.000 353.058,374.836 351.646,371.520 348.278 L 368.839 345.557 365.920 345.335 C 361.359 344.988,358.633 343.961,347.600 338.428 C 339.600 334.416,337.345 333.213,335.600 332.026 C 330.854 328.800,297.622 323.774,268.800 321.924 C 261.176 321.434,142.990 321.147,138.600 321.607 " stroke="none" fill="#0d9ce3" fill-rule="evenodd"></path></g></svg>